<svg id="visual" viewBox="0 0 2600 600" width="2600" height="600" xmlns="http://www.w3.org/2000/svg" xmlns:xlink="http://www.w3.org/1999/xlink" version="1.1"><rect x="0" y="0" width="2600" height="600" fill="#fff"></rect><path d="M0 255L61.8 224.7C123.7 194.3 247.3 133.7 371.2 122.8C495 112 619 151 742.8 164.8C866.7 178.7 990.3 167.3 1114.2 148.2C1238 129 1362 102 1485.8 84.7C1609.7 67.3 1733.3 59.7 1857.2 96.2C1981 132.7 2105 213.3 2228.8 231.2C2352.7 249 2476.3 204 2538.2 181.5L2600 159L2600 0L2538.2 0C2476.3 0 2352.7 0 2228.8 0C2105 0 1981 0 1857.2 0C1733.3 0 1609.7 0 1485.8 0C1362 0 1238 0 1114.2 0C990.3 0 866.7 0 742.8 0C619 0 495 0 371.2 0C247.3 0 123.7 0 61.8 0L0 0Z" fill="rgb(162, 200, 238)"  stroke-linecap="round" stroke-linejoin="miter"></path></svg> 