<svg id="visual" viewBox="0 0 2600 600" width="2600" height="600" xmlns="http://www.w3.org/2000/svg" xmlns:xlink="http://www.w3.org/1999/xlink" version="1.1"><rect x="0" y="0" width="2600" height="600" fill="#fff"></rect><path d="M0 486L31 491.8C62 497.7 124 509.3 185.8 498.2C247.7 487 309.3 453 371.2 459.7C433 466.3 495 513.7 557 511.2C619 508.7 681 456.3 743 430.2C805 404 867 404 928.8 412.8C990.7 421.7 1052.3 439.3 1114.2 452.5C1176 465.7 1238 474.3 1300 484.7C1362 495 1424 507 1485.8 512.7C1547.7 518.3 1609.3 517.7 1671.2 526.5C1733 535.3 1795 553.7 1857 556.8C1919 560 1981 548 2043 545.7C2105 543.3 2167 550.7 2228.8 554.5C2290.7 558.3 2352.3 558.7 2414.2 539.8C2476 521 2538 483 2569 464L2600 445L2600 601L2569 601C2538 601 2476 601 2414.2 601C2352.3 601 2290.7 601 2228.8 601C2167 601 2105 601 2043 601C1981 601 1919 601 1857 601C1795 601 1733 601 1671.2 601C1609.3 601 1547.7 601 1485.8 601C1424 601 1362 601 1300 601C1238 601 1176 601 1114.2 601C1052.3 601 990.7 601 928.8 601C867 601 805 601 743 601C681 601 619 601 557 601C495 601 433 601 371.2 601C309.3 601 247.7 601 185.8 601C124 601 62 601 31 601L0 601Z" fill="rgb(162, 200, 238)"  stroke-linecap="round" stroke-linejoin="miter"></path></svg>