<svg id="visual" viewBox="0 0 1300 600" width="1300" height="600" xmlns="http://www.w3.org/2000/svg" xmlns:xlink="http://www.w3.org/1999/xlink" version="1.1"><rect x="0" y="0" width="1300" height="600" fill="#fff"></rect><path d="M0 371L36.2 398.2C72.3 425.3 144.7 479.7 216.8 508.7C289 537.7 361 541.3 433.2 503.3C505.3 465.3 577.7 385.7 650 360C722.3 334.3 794.7 362.7 866.8 398.5C939 434.3 1011 477.7 1083.2 487.2C1155.3 496.7 1227.7 472.3 1263.8 460.2L1300 448L1300 601L1263.8 601C1227.7 601 1155.3 601 1083.2 601C1011 601 939 601 866.8 601C794.7 601 722.3 601 650 601C577.7 601 505.3 601 433.2 601C361 601 289 601 216.8 601C144.7 601 72.3 601 36.2 601L0 601Z" fill="rgb(162, 200, 238)" stroke-linecap="round" stroke-linejoin="miter"></path></svg>