<svg id="visual" viewBox="0 0 1300 600" width="1300" height="600" xmlns="http://www.w3.org/2000/svg" xmlns:xlink="http://www.w3.org/1999/xlink" version="1.1"><rect x="0" y="0" width="1300" height="600" fill="#fff"></rect><path d="M0 113L36.2 99.3C72.3 85.7 144.7 58.3 216.8 43.8C289 29.3 361 27.7 433.2 46.8C505.3 66 577.7 106 650 118.8C722.3 131.7 794.7 117.3 866.8 99.3C939 81.3 1011 59.7 1083.2 55C1155.3 50.3 1227.7 62.7 1263.8 68.8L1300 75L1300 0L1263.8 0C1227.7 0 1155.3 0 1083.2 0C1011 0 939 0 866.8 0C794.7 0 722.3 0 650 0C577.7 0 505.3 0 433.2 0C361 0 289 0 216.8 0C144.7 0 72.3 0 36.2 0L0 0Z" fill="rgb(162, 200, 238)" stroke-linecap="round" stroke-linejoin="miter"></path></svg>