<svg id="visual" viewBox="0 0 1300 900" width="1300" height="900" xmlns="http://www.w3.org/2000/svg" xmlns:xlink="http://www.w3.org/1999/xlink" version="1.1"><rect x="0" y="0" width="1300" height="900" fill="rgb(163,200,233)"></rect><path d="M0 164L27.2 183.5C54.3 203 108.7 242 162.8 279.2C217 316.3 271 351.7 325.2 331.8C379.3 312 433.7 237 487.8 227.3C542 217.7 596 273.3 650.2 274.7C704.3 276 758.7 223 812.8 200.3C867 177.7 921 185.3 975.2 209.3C1029.3 233.3 1083.7 273.7 1137.8 264.8C1192 256 1246 198 1273 169L1300 140L1300 0L1273 0C1246 0 1192 0 1137.8 0C1083.7 0 1029.3 0 975.2 0C921 0 867 0 812.8 0C758.7 0 704.3 0 650.2 0C596 0 542 0 487.8 0C433.7 0 379.3 0 325.2 0C271 0 217 0 162.8 0C108.7 0 54.3 0 27.2 0L0 0Z" fill="#fff" stroke-linecap="round" stroke-linejoin="miter"></path></svg>